<svg xmlns="http://www.w3.org/2000/svg" width="90.5" height="78.435" viewBox="0 0 90.5 78.435">
  <g id="photo-camera" transform="translate(0 -36.54)" opacity="0.36">
    <g id="Grupo_35852" data-name="Grupo 35852" transform="translate(0 36.54)">
      <path id="Caminho_37797" data-name="Caminho 37797" d="M86.966,52.142a11.626,11.626,0,0,0-8.531-3.535H67.876l-2.4-6.41A8.755,8.755,0,0,0,62.2,38.214a8.4,8.4,0,0,0-4.879-1.674H33.184A8.4,8.4,0,0,0,28.3,38.214,8.756,8.756,0,0,0,25.029,42.2l-2.4,6.41H12.067a11.627,11.627,0,0,0-8.532,3.535A11.626,11.626,0,0,0,0,60.674v42.234a11.624,11.624,0,0,0,3.535,8.531,11.626,11.626,0,0,0,8.532,3.536H78.434A12.071,12.071,0,0,0,90.5,102.908V60.674A11.625,11.625,0,0,0,86.966,52.142ZM60.169,96.71a20.336,20.336,0,0,1-14.918,6.2,20.337,20.337,0,0,1-14.918-6.2,21.052,21.052,0,0,1,0-29.837,20.335,20.335,0,0,1,14.918-6.2,20.337,20.337,0,0,1,14.918,6.2,21.051,21.051,0,0,1,0,29.837Z" transform="translate(0 -36.54)" fill="#a2a2a2"/>
      <path id="Caminho_37798" data-name="Caminho 37798" d="M205.432,228.4a13.6,13.6,0,1,0,9.592,3.983A13.074,13.074,0,0,0,205.432,228.4Z" transform="translate(-160.181 -196.727)" fill="#a2a2a2"/>
    </g>
  </g>
</svg>
