<svg xmlns="http://www.w3.org/2000/svg" width="284.641" height="551.926" viewBox="0 0 284.641 551.926">
  <g id="XMLID_1080_" transform="translate(-129.951)" style="isolation: isolate">
    <g id="XMLID_3065_" transform="translate(137.66 7.713)">
      <g id="XMLID_2571_">
        <rect id="XMLID_2933_" width="232.441" height="191.592" transform="translate(18.388 319.526)" fill="#9391f9"/>
        <rect id="XMLID_2925_" width="232.441" height="41.764" transform="translate(18.388 319.526)" fill="#7a6cf7"/>
        <path id="XMLID_2774_" d="M387.768,440.729v67.525H155.327V440.729l116.22-68.379Z" transform="translate(-136.939 2.864)" fill="#ffdc13"/>
        <path id="XMLID_2792_" d="M387.768,507.364H155.327V472.069l116.22-68.379,116.22,68.379Z" transform="translate(-136.939 3.755)" fill="#6cffff"/>
        <g id="XMLID_2107_">
          <rect id="XMLID_2905_" width="232.441" height="186.512" transform="translate(18.388 70.672)" fill="#9391f9"/>
          <rect id="XMLID_2895_" width="232.441" height="20.681" transform="translate(18.388 236.503)" fill="#7a6cf7"/>
          <rect id="XMLID_2892_" width="232.441" height="22.46" transform="translate(18.388 70.672)" fill="#7a6cf7"/>
          <g id="XMLID_1086_" transform="translate(0 249.872)">
            <path id="XMLID_2931_" d="M406.664,283.945V297.1H137.447V283.945l7.5-13.709,10.8-19.766H388.368l10.8,19.766Z" transform="translate(-137.447 -250.47)" fill="#6cffff"/>
            <path id="XMLID_2928_" d="M406.664,283.4v13.153H137.447V283.4l7.5-13.709H399.166Z" transform="translate(-137.447 -249.924)" fill="#00f0f5"/>
            <rect id="XMLID_1090_" width="269.206" height="64.915" transform="translate(0.004 33.133)" fill="#9391f9"/>
            <rect id="XMLID_3063_" width="50.734" height="26.886" transform="translate(44.793 71.163)" fill="#dd66d8"/>
            <rect id="XMLID_1091_" width="269.206" height="13.497" transform="translate(0.004 33.133)" fill="#b8b8ff"/>
          </g>
          <g id="XMLID_1092_">
            <path id="XMLID_2896_" d="M406.664,39.72V52.873l-7.5,13.709-10.8,19.766H155.742l-10.8-19.766-7.5-13.709V39.72Z" transform="translate(-137.447 -6.585)" fill="#6cffff"/>
            <path id="XMLID_2893_" d="M406.664,39.72V52.873l-7.5,13.709H144.944l-7.5-13.709V39.72Z" transform="translate(-137.447 -6.585)" fill="#00f0f5"/>
            <rect id="XMLID_1093_" width="269.206" height="46.629" transform="translate(0.004)" fill="#dd66d8"/>
            <rect id="XMLID_2956_" width="269.206" height="13.884" transform="translate(0.004)" fill="#f288e8"/>
          </g>
        </g>
        <rect id="XMLID_2533_" width="104.898" height="40.622" transform="translate(82.159 470.496)" fill="#f288e8"/>
      </g>
      <path id="XMLID_2723_" d="M358.874,130.2v76.658a20.6,20.6,0,0,1-20.609,20.6H203.276a20.579,20.579,0,0,1-20.609-20.6V130.2a20.6,20.6,0,0,1,20.609-20.6H338.265a20.613,20.613,0,0,1,20.311,17.133A20.292,20.292,0,0,1,358.874,130.2Z" transform="translate(-136.162 -4.6)" fill="#ffdc13"/>
      <path id="XMLID_2697_" d="M352.175,115.328,240.048,227.456H202.933a20.554,20.554,0,0,1-8.166-1.676L310.946,109.6h26.975A20.529,20.529,0,0,1,352.175,115.328Z" transform="translate(-135.819 -4.6)" fill="#ffed97"/>
      <path id="XMLID_2696_" d="M356.8,129.726v14.069l-83.2,83.188H255.777L356.5,126.26A20.292,20.292,0,0,1,356.8,129.726Z" transform="translate(-134.086 -4.126)" fill="#ffed97"/>
      <rect id="XMLID_2795_" width="268.517" height="0.257" transform="translate(0.35 543.956)" fill="#97ebff"/>
      <g id="XMLID_2884_" transform="translate(67.076 197.626)">
        <circle id="XMLID_2856_" cx="17.311" cy="17.311" r="17.311" fill="#e94141"/>
      </g>
    </g>
    <g id="XMLID_1081_" transform="translate(129.951)">
      <path id="XMLID_1084_" d="M414.584,291.008a7.8,7.8,0,0,0-1.839-5.282L396.2,255.432V89.629l16.548-30.295a8.048,8.048,0,0,0,1.839-5.345V7.713A7.713,7.713,0,0,0,406.871,0h-45.04a7.713,7.713,0,0,0,0,15.426h37.327v31.2H145.377v-31.2h181.3a7.713,7.713,0,0,0,0-15.426H137.664a7.713,7.713,0,0,0-7.713,7.713V53.989a8.054,8.054,0,0,0,1.839,5.345l16.548,30.295V155.2a7.713,7.713,0,0,0,15.426,0V95.188H380.771V249.873H229.76v-3.42a25.109,25.109,0,0,0,11.805-8.168h98.2a28.349,28.349,0,0,0,28.316-28.316V133.316A28.348,28.348,0,0,0,339.765,105H204.771a28.349,28.349,0,0,0-28.316,28.316v76.653a28.349,28.349,0,0,0,25.994,28.213,25.106,25.106,0,0,0,11.885,8.27v3.42h-50.57V190.347a7.713,7.713,0,1,0-15.426,0v65.085L131.79,285.727a7.678,7.678,0,0,0-1.839,4.992v64.915a7.713,7.713,0,0,0,7.713,7.713h10.674V518.832a7.713,7.713,0,0,0,7.713,7.713H388.484a7.713,7.713,0,0,0,7.713-7.713V412.483a7.713,7.713,0,1,0-15.426,0v25.335L276.179,376.28a7.713,7.713,0,0,0-7.822,0L163.764,437.818V363.347H380.771v13.988a7.713,7.713,0,0,0,15.426,0V363.347h10.674a7.713,7.713,0,0,0,7.713-7.713V291.07Q414.584,291.039,414.584,291.008Zm-192.537-58.76a9.6,9.6,0,1,1,9.6-9.6A9.609,9.609,0,0,1,222.047,232.248Zm-30.166-22.279V133.316a12.905,12.905,0,0,1,12.89-12.89H339.766a12.905,12.905,0,0,1,12.89,12.89v76.653a12.9,12.9,0,0,1-12.89,12.89h-92.7c0-.07.005-.139.005-.209a25.023,25.023,0,0,0-49.937-2.321A12.864,12.864,0,0,1,191.881,209.969Zm35.652,301.15v-25.2H317v25.2Zm104.9,0V478.209a7.713,7.713,0,0,0-7.713-7.713h-104.9a7.713,7.713,0,0,0-7.713,7.713v32.909H163.764V487.945l108.5-63.837,108.5,63.837v23.173ZM272.268,391.877l108.5,63.838v14.333L276.179,408.511a7.713,7.713,0,0,0-7.822,0L163.764,470.048V455.715ZM160.526,79.762l-9.671-17.707H393.682l-9.671,17.707ZM222.047,277.5a7.713,7.713,0,0,0,7.713-7.713V265.3H384.01l9.671,17.706H150.854l9.671-17.706h53.808v4.486A7.713,7.713,0,0,0,222.047,277.5Zm3.429,70.422H190.167v-11.46h35.308Zm173.683,0h-22.85v-8.2a7.713,7.713,0,0,0-15.426,0v8.2H355.4v-8.2a7.713,7.713,0,0,0-15.426,0v8.2h-5.484v-8.2a7.713,7.713,0,0,0-15.426,0v8.2H240.9V328.748a7.713,7.713,0,0,0-7.713-7.713H182.454a7.713,7.713,0,0,0-7.713,7.713v19.173H145.378V298.431H399.159v49.489Z" transform="translate(-129.951)"/>
      <path id="XMLID_1111_" d="M233.5,31.88v.965a7.713,7.713,0,0,0,15.426,0V31.88a7.713,7.713,0,0,0-15.426,0Z" transform="translate(-127.009 0.687)"/>
      <path id="XMLID_1112_" d="M260.837,31.88v.965a7.713,7.713,0,1,0,15.426,0V31.88a7.713,7.713,0,1,0-15.426,0Z" transform="translate(-126.233 0.687)"/>
      <path id="XMLID_1113_" d="M288.17,31.88v.965a7.713,7.713,0,1,0,15.426,0V31.88a7.713,7.713,0,1,0-15.426,0Z" transform="translate(-125.456 0.687)"/>
      <path id="XMLID_1114_" d="M175.17,372.094v.965a7.713,7.713,0,0,0,15.426,0v-.965a7.713,7.713,0,0,0-15.426,0Z" transform="translate(-128.666 10.351)"/>
    </g>
  </g>
</svg>
