<svg xmlns="http://www.w3.org/2000/svg" width="167.194" height="100.58" viewBox="0 0 167.194 100.58">
  <path id="mortarboard" d="M165.729,36.492,84.606.218a2.465,2.465,0,0,0-2.019,0L49.7,14.924a2.473,2.473,0,0,0,2.021,4.516L83.6,5.185,112.78,18.234V36.452a101.412,101.412,0,0,0-29.115-6.11q-.069,0-.138,0A102.184,102.184,0,0,0,51,37.77a84.3,84.3,0,0,0-18.345,10.2,2.473,2.473,0,0,0-.862,1.179L8.532,38.749,41.146,24.166a2.473,2.473,0,0,0-2.019-4.516L1.463,36.492a2.474,2.474,0,0,0,0,4.516l30.194,13.5V66.354a2.473,2.473,0,0,0,4.947,0V51.221a80.02,80.02,0,0,1,16.27-8.872A99.465,99.465,0,0,1,83.6,35.289a98.955,98.955,0,0,1,29.183,6.448V66.315a8.737,8.737,0,0,0-.86,16.456l-1.73,4.553C98.9,89.266,89.967,91.94,83.6,95.289,68.92,87.58,44.345,85.4,36.605,84.89V77.952a2.473,2.473,0,0,0-4.947,0v9.275A2.474,2.474,0,0,0,34.023,89.7c.323.014,32.467,1.515,48.35,10.56a2.472,2.472,0,0,0,2.449,0c5.34-3.044,13.346-5.625,23.318-7.536l-1.462,3.85a2.473,2.473,0,0,0,2.311,3.352H121.52a2.474,2.474,0,0,0,2.313-3.352L121.6,90.686c6.73-.77,11.518-.987,11.573-.99a2.474,2.474,0,0,0,2.366-2.471V77.951a2.473,2.473,0,0,0-4.947,0v6.942c-2.309.156-6.146.463-10.805,1.026l-1.2-3.147a8.737,8.737,0,0,0-.861-16.456V43.833a78.352,78.352,0,0,1,12.862,7.388V66.354a2.473,2.473,0,0,0,4.947,0V54.51l30.194-13.5a2.473,2.473,0,0,0,0-4.516ZM112.574,94.976l2.68-7.053,2.68,7.053Zm6.472-20.28a3.792,3.792,0,1,1-3.792-3.792A3.8,3.8,0,0,1,119.046,74.7ZM135.4,49.153a2.473,2.473,0,0,0-.862-1.179,83.558,83.558,0,0,0-16.807-9.552V20.446l40.933,18.3Zm0,0" transform="translate(0 -0.002)" fill="#333"/>
</svg>
