<svg id="profiles" xmlns="http://www.w3.org/2000/svg" width="87.737" height="103.476" viewBox="0 0 87.737 103.476">
  <g id="Grupo_35743" data-name="Grupo 35743" transform="translate(0)">
    <g id="Grupo_35742" data-name="Grupo 35742">
      <path id="Caminho_37733" data-name="Caminho 37733" d="M104.418,0H45a6.07,6.07,0,0,0-6.063,6.063V26.677a2.021,2.021,0,0,0,4.042,0V6.063A2.023,2.023,0,0,1,45,4.042h59.418a2.023,2.023,0,0,1,2.021,2.021V81.245a2.023,2.023,0,0,1-2.021,2.021H45a2.023,2.023,0,0,1-2.021-2.021V43.721a2.021,2.021,0,0,0-4.042,0V81.245A6.07,6.07,0,0,0,45,87.308h59.418a6.07,6.07,0,0,0,6.063-6.063V6.063A6.07,6.07,0,0,0,104.418,0Z" transform="translate(-38.937)" fill="#333"/>
    </g>
  </g>
  <g id="Grupo_35745" data-name="Grupo 35745" transform="translate(0 33.706)">
    <g id="Grupo_35744" data-name="Grupo 35744">
      <path id="Caminho_37734" data-name="Caminho 37734" d="M42.387,167.37a2.022,2.022,0,1,0,.592,1.429A2.034,2.034,0,0,0,42.387,167.37Z" transform="translate(-38.937 -166.78)" fill="#333"/>
    </g>
  </g>
  <g id="Grupo_35747" data-name="Grupo 35747" transform="translate(8.096 91.362)">
    <g id="Grupo_35746" data-name="Grupo 35746">
      <path id="Caminho_37735" data-name="Caminho 37735" d="M82.446,452.652a2.02,2.02,0,1,0,.592,1.429A2.033,2.033,0,0,0,82.446,452.652Z" transform="translate(-78.996 -452.06)" fill="#333"/>
    </g>
  </g>
  <g id="Grupo_35749" data-name="Grupo 35749" transform="translate(16.181 8.097)">
    <g id="Grupo_35748" data-name="Grupo 35748">
      <path id="Caminho_37736" data-name="Caminho 37736" d="M180.439,40.063a2.021,2.021,0,0,0-2.021,2.021v79.224a2.023,2.023,0,0,1-2.021,2.021H121.021a2.021,2.021,0,0,0,0,4.042H176.4a6.07,6.07,0,0,0,6.063-6.063V42.084A2.021,2.021,0,0,0,180.439,40.063Z" transform="translate(-119 -40.063)" fill="#333"/>
    </g>
  </g>
  <g id="Grupo_35751" data-name="Grupo 35751" transform="translate(16.194 16.168)">
    <g id="Grupo_35750" data-name="Grupo 35750">
      <path id="Caminho_37737" data-name="Caminho 37737" d="M188.586,80a2.021,2.021,0,0,0-2.021,2.021v79.224a2.023,2.023,0,0,1-2.021,2.021h-63.46a2.021,2.021,0,1,0,0,4.042h63.46a6.07,6.07,0,0,0,6.063-6.063V82.021A2.021,2.021,0,0,0,188.586,80Z" transform="translate(-119.063 -80)" fill="#333"/>
    </g>
  </g>
  <g id="Grupo_35753" data-name="Grupo 35753" transform="translate(11.318 14.955)">
    <g id="Grupo_35752" data-name="Grupo 35752">
      <path id="Caminho_37738" data-name="Caminho 37738" d="M116.36,74h-19.4a2.021,2.021,0,0,0-2.021,2.021v19.4a2.021,2.021,0,0,0,2.021,2.021h19.4a2.021,2.021,0,0,0,2.021-2.021v-19.4A2.021,2.021,0,0,0,116.36,74Zm-2.021,19.4H98.979V78.042h15.36Z" transform="translate(-94.937 -74)" fill="#333"/>
    </g>
  </g>
  <g id="Grupo_35755" data-name="Grupo 35755" transform="translate(12.059 46.983)">
    <g id="Grupo_35754" data-name="Grupo 35754">
      <path id="Caminho_37739" data-name="Caminho 37739" d="M112.782,233.065a2.021,2.021,0,0,0-2.858,0l-5.372,5.372-2.5-2.5A2.021,2.021,0,1,0,99.2,238.8l3.927,3.927a2.021,2.021,0,0,0,2.858,0l6.8-6.8A2.021,2.021,0,0,0,112.782,233.065Z" transform="translate(-98.603 -232.474)" fill="#333"/>
    </g>
  </g>
  <g id="Grupo_35757" data-name="Grupo 35757" transform="translate(33.751 50.323)">
    <g id="Grupo_35756" data-name="Grupo 35756">
      <path id="Caminho_37740" data-name="Caminho 37740" d="M231.536,249H207.958a2.021,2.021,0,1,0,0,4.042h23.578a2.021,2.021,0,1,0,0-4.042Z" transform="translate(-205.937 -249)" fill="#333"/>
    </g>
  </g>
  <g id="Grupo_35759" data-name="Grupo 35759" transform="translate(42.037 14.955)">
    <g id="Grupo_35758" data-name="Grupo 35758">
      <path id="Caminho_37741" data-name="Caminho 37741" d="M263.105,74H248.958a2.021,2.021,0,0,0,0,4.042h14.147a2.021,2.021,0,0,0,0-4.042Z" transform="translate(-246.937 -74)" fill="#333"/>
    </g>
  </g>
  <g id="Grupo_35761" data-name="Grupo 35761" transform="translate(42.037 24.656)">
    <g id="Grupo_35760" data-name="Grupo 35760">
      <path id="Caminho_37742" data-name="Caminho 37742" d="M263.105,122H248.958a2.021,2.021,0,0,0,0,4.042h14.147a2.021,2.021,0,0,0,0-4.042Z" transform="translate(-246.937 -122)" fill="#333"/>
    </g>
  </g>
  <g id="Grupo_35763" data-name="Grupo 35763" transform="translate(42.037 34.357)">
    <g id="Grupo_35762" data-name="Grupo 35762">
      <path id="Caminho_37743" data-name="Caminho 37743" d="M263.105,170H248.958a2.021,2.021,0,0,0,0,4.042h14.147a2.021,2.021,0,0,0,0-4.042Z" transform="translate(-246.937 -170)" fill="#333"/>
    </g>
  </g>
  <g id="Grupo_35765" data-name="Grupo 35765" transform="translate(12.059 62.417)">
    <g id="Grupo_35764" data-name="Grupo 35764">
      <path id="Caminho_37744" data-name="Caminho 37744" d="M112.782,309.432a2.022,2.022,0,0,0-2.858,0l-5.372,5.372-2.5-2.5a2.021,2.021,0,1,0-2.858,2.858l3.927,3.927a2.021,2.021,0,0,0,2.858,0l6.8-6.8A2.021,2.021,0,0,0,112.782,309.432Z" transform="translate(-98.603 -308.841)" fill="#333"/>
    </g>
  </g>
  <g id="Grupo_35767" data-name="Grupo 35767" transform="translate(33.751 65.683)">
    <g id="Grupo_35766" data-name="Grupo 35766">
      <path id="Caminho_37745" data-name="Caminho 37745" d="M231.536,325H207.958a2.021,2.021,0,1,0,0,4.042h23.578a2.021,2.021,0,1,0,0-4.042Z" transform="translate(-205.937 -325)" fill="#333"/>
    </g>
  </g>
</svg>
