<svg id="support" xmlns="http://www.w3.org/2000/svg" width="111.389" height="101.181" viewBox="0 0 111.389 101.181">
  <g id="Grupo_35785" data-name="Grupo 35785" transform="translate(101.726 66.417)">
    <g id="Grupo_35784" data-name="Grupo 35784">
      <path id="Caminho_37751" data-name="Caminho 37751" d="M476.606,334.649l-5.31-5.267a2.176,2.176,0,1,0-3.065,3.09l5.31,5.267a2.176,2.176,0,0,0,3.065-3.09Z" transform="translate(-467.587 -328.751)" fill="#333"/>
    </g>
  </g>
  <g id="Grupo_35787" data-name="Grupo 35787" transform="translate(96.307 61.022)">
    <g id="Grupo_35786" data-name="Grupo 35786">
      <path id="Caminho_37752" data-name="Caminho 37752" d="M446.392,304.589a2.176,2.176,0,0,0-3.077,0l0,0a2.176,2.176,0,1,0,3.081,0Z" transform="translate(-442.675 -303.952)" fill="#333"/>
    </g>
  </g>
  <g id="Grupo_35789" data-name="Grupo 35789" transform="translate(0 0)">
    <g id="Grupo_35788" data-name="Grupo 35788" transform="translate(0 0)">
      <path id="Caminho_37753" data-name="Caminho 37753" d="M81.473,95.155l21.109-21.109a8.194,8.194,0,0,0-3.955-13.784,8.2,8.2,0,0,0-6.045-11.537A8.186,8.186,0,0,0,86.2,38.082a8.2,8.2,0,0,0-11.7-9.781l-.21-.226a14.521,14.521,0,0,0-10.6-4.614H46.6a2.176,2.176,0,0,0-2.176,2.176v2.853a9.885,9.885,0,0,0,.563,3.3A8.2,8.2,0,0,0,34.057,41.94a8.2,8.2,0,0,0-6.4,10.645,8.2,8.2,0,0,0-6.039,11.531A8.2,8.2,0,0,0,17.667,77.9l4.341,4.341L.637,103.616a2.176,2.176,0,1,0,3.077,3.078L25.292,85.116a8.2,8.2,0,0,0,12.241-7.461c.11,0,.221.008.331.008a8.193,8.193,0,0,0,8.2-8.2c0-.111,0-.221-.008-.331.109,0,.218.008.327.008a8.193,8.193,0,0,0,8.2-8.2c0-.111,0-.221-.008-.331.109,0,.218.008.327.008a8.2,8.2,0,0,0,6.342-13.393L75.687,32.788a3.848,3.848,0,1,1,5.442,5.441L79,40.359l-7.727,7.727a2.176,2.176,0,1,0,3.077,3.078l7.727-7.727a3.848,3.848,0,1,1,5.442,5.442l-2.13,2.13-5.6,5.6a2.176,2.176,0,1,0,3.077,3.078l5.6-5.6a3.848,3.848,0,1,1,5.441,5.441L90.983,62.45l-2.674,2.674A2.176,2.176,0,1,0,91.386,68.2l2.676-2.676A3.848,3.848,0,0,1,99.5,70.97L78.393,92.079a29.478,29.478,0,0,1-19.836,8.641,2.176,2.176,0,0,0-1.463.639l-19.5,19.572A2.176,2.176,0,1,0,40.677,124l14.343-14.4a20.226,20.226,0,0,0,12.284,3.16l11.225,11.226a2.176,2.176,0,0,0,3.077-3.078L69.671,108.979a2.177,2.177,0,0,0-1.717-.63l-.69.057a15.884,15.884,0,0,1-9.08-1.976l1.4-1.4A33.811,33.811,0,0,0,81.473,95.155ZM32.065,80.707a3.847,3.847,0,0,1-5.441,0l-5.88-5.879a3.848,3.848,0,1,1,5.442-5.442l5.88,5.879A3.853,3.853,0,0,1,32.065,80.707Zm8.519-8.519a3.853,3.853,0,0,1-5.442,0l-5.88-5.88-2.924-2.924a3.848,3.848,0,1,1,5.441-5.442l8.8,8.8h0a3.848,3.848,0,0,1,0,5.442ZM49.1,63.669a3.853,3.853,0,0,1-5.442,0L32.728,52.736a3.848,3.848,0,0,1,5.44-5.443l4.983,4.983L49.1,58.227h0a3.849,3.849,0,0,1,0,5.442Zm8.519-8.519a3.852,3.852,0,0,1-5.442,0L41.248,44.217l0,0-2.126-2.126a3.848,3.848,0,0,1,5.442-5.442L57.622,49.708a3.849,3.849,0,0,1,0,5.442Zm.572-11.024-5.977-5.977a9.956,9.956,0,0,0,2.084.221h.048l5.971-.028a2.176,2.176,0,0,0-.01-4.352H60.3l-5.971.028H54.3a5.527,5.527,0,0,1-5.527-5.527v-.677H63.686A10.155,10.155,0,0,1,71.1,31.04l.089.1Z" transform="translate(0 -23.462)" fill="#333"/>
    </g>
  </g>
</svg>
