<svg id="video" xmlns="http://www.w3.org/2000/svg" width="87.496" height="99.421" viewBox="0 0 87.496 99.421">
  <path id="Caminho_37769" data-name="Caminho 37769" d="M85.554,40.133H19.305L82.938,21.7a1.942,1.942,0,0,0,1.325-2.405L80.933,7.8A10.87,10.87,0,0,0,70.537,0a10.759,10.759,0,0,0-2.991.426L7.8,17.733A10.832,10.832,0,0,0,.428,31.119L3.682,42.35V88.614A10.819,10.819,0,0,0,14.488,99.421H37.821a1.942,1.942,0,0,0,0-3.884H14.488a6.931,6.931,0,0,1-6.923-6.923V62.189H83.612V88.614a6.931,6.931,0,0,1-6.923,6.923H53.356a1.942,1.942,0,1,0,0,3.884H76.689A10.819,10.819,0,0,0,87.5,88.614V42.075a1.942,1.942,0,0,0-1.942-1.942ZM51.314,58.305l8.25-14.289H70.3l-8.25,14.289Zm-15.216,0,8.25-14.289H55.079L46.83,58.305Zm-15.215,0,8.25-14.289H39.864l-8.25,14.289ZM28.1,33.167,14.287,19.9l10.352-3a1.926,1.926,0,0,0,.255.3l13.816,13.27-10.352,3a1.933,1.933,0,0,0-.255-.3ZM54.123,8.731,67.938,22,57.587,25a1.892,1.892,0,0,0-.255-.3L43.516,11.43l10.352-3A1.926,1.926,0,0,0,54.123,8.731ZM39.508,12.966,53.323,26.234l-10.352,3a1.891,1.891,0,0,0-.255-.3L28.9,15.664l10.352-3A2.051,2.051,0,0,0,39.508,12.966Zm29.12-8.809a6.866,6.866,0,0,1,1.91-.272,6.967,6.967,0,0,1,6.666,5l2.79,9.629L72.2,20.765a1.974,1.974,0,0,0-.256-.3L58.131,7.2ZM4.753,24.778a6.872,6.872,0,0,1,4.129-3.315l1.141-.331a1.975,1.975,0,0,0,.255.3L24.093,34.7,6.949,39.669l-2.79-9.629a6.874,6.874,0,0,1,.595-5.261ZM7.565,44.016H24.648L16.4,58.305H7.565ZM66.53,58.305l8.25-14.289h8.833V58.305Zm0,0" transform="translate(0 0)" fill="#fff" fill-rule="evenodd"/>
  <path id="Caminho_37770" data-name="Caminho 37770" d="M217.01,356.182a1.941,1.941,0,0,0-.971-1.682l-17.06-9.849a1.942,1.942,0,0,0-2.913,1.682v19.7a1.941,1.941,0,0,0,2.913,1.681l17.06-9.849a1.941,1.941,0,0,0,.971-1.682Zm-17.06,6.486V349.7l11.234,6.486Zm0,0" transform="translate(-157.994 -277.517)" fill="#fff" fill-rule="evenodd"/>
  <path id="Caminho_37771" data-name="Caminho 37771" d="M226.715,492a1.942,1.942,0,1,0,1.942,1.942A1.946,1.946,0,0,0,226.715,492Zm0,0" transform="translate(-181.126 -396.463)" fill="#fff" fill-rule="evenodd"/>
</svg>
