<svg id="Grupo_35849" data-name="Grupo 35849" xmlns="http://www.w3.org/2000/svg" width="89.614" height="90.298" viewBox="0 0 89.614 90.298">
  <g id="paint-palette" transform="translate(0 0)">
    <g id="Grupo_35791" data-name="Grupo 35791" transform="translate(57.491 39.858)">
      <g id="Grupo_35790" data-name="Grupo 35790">
        <ellipse id="Elipse_229" data-name="Elipse 229" cx="1.764" cy="1.764" rx="1.764" ry="1.764" fill="#fff"/>
      </g>
    </g>
    <g id="Grupo_35793" data-name="Grupo 35793" transform="translate(32.866 49.159)">
      <g id="Grupo_35792" data-name="Grupo 35792">
        <path id="Caminho_37754" data-name="Caminho 37754" d="M529.419,744.229a1.764,1.764,0,0,0-2,1.486c-.482,3.255-3.233,5.954-7.36,7.221-4.41,1.354-10.532.9-14.267-3.166a1.764,1.764,0,0,0-2.6,2.386,15.541,15.541,0,0,0,8.491,4.64,18.806,18.806,0,0,0,3.692.36,19.59,19.59,0,0,0,5.716-.847c5.458-1.676,9.127-5.443,9.813-10.076A1.764,1.764,0,0,0,529.419,744.229Z" transform="translate(-502.727 -744.21)" fill="#fff"/>
      </g>
    </g>
    <g id="Grupo_35795" data-name="Grupo 35795" transform="translate(0)">
      <g id="Grupo_35794" data-name="Grupo 35794">
        <path id="Caminho_37755" data-name="Caminho 37755" d="M89.249,33.582a21.836,21.836,0,0,0-12.955-7.093,100.059,100.059,0,0,0,12.632-9.853c4.781-4.556,6.384-7.757,5.046-10.074C92.482,3.98,88.182,4,80.439,6.618a135.437,135.437,0,0,0-22.95,10.825c-1.426.823-2.839,1.666-4.221,2.516-1.025-2.9-.349-6.2,1.913-9.071a6.741,6.741,0,0,0,.987-7.121A7.123,7.123,0,0,0,49.486,0H49.4A43.776,43.776,0,0,0,19.77,11.954,44.448,44.448,0,0,0,5.359,40.723,45.3,45.3,0,0,0,50.327,90.3a48.115,48.115,0,0,0,18.886-3.681,42.5,42.5,0,0,0,13.909-9.48,41.892,41.892,0,0,0,8.6-12.871,37.325,37.325,0,0,0,3.064-13.936C94.885,43.685,92.969,37.894,89.249,33.582Zm-35.775-9.6c1.867-1.177,3.811-2.35,5.779-3.486A135.969,135.969,0,0,1,80.658,10.274c6.792-2.4,9.572-2.248,10.221-1.937-.056.41-.566,2.236-5.023,6.341a112.216,112.216,0,0,1-15.3,11.349c-1.943,1.23-3.965,2.453-6.01,3.634-2.819,1.627-5.636,3.149-8.4,4.542a26.424,26.424,0,0,0-5-8.719Q52.289,24.731,53.474,23.983Zm-.527,11.784a90.438,90.438,0,0,1-13.2,5.207,8.8,8.8,0,0,0-2.662-4.691,90.694,90.694,0,0,1,11.1-8.816,22.993,22.993,0,0,1,4.756,8.3ZM91.263,50.28c-.251,17.55-15.974,36.491-40.936,36.491A41.773,41.773,0,0,1,8.873,41.025c1.781-20.677,19.963-37.5,40.53-37.5h.079A3.658,3.658,0,0,1,52.993,5.3a3.214,3.214,0,0,1-.581,3.4c-3.179,4.03-3.976,8.986-2.18,13.165-.945.609-1.875,1.221-2.773,1.828l-.013.008A93.941,93.941,0,0,0,33.951,34.421a8.771,8.771,0,0,0-7.247.71c-3.664,2.117-8.475,11.98-9.4,13.935a1.764,1.764,0,0,0,1.451,2.514c.975.079,3.743.279,6.824.279,3.739,0,7.937-.294,9.946-1.454a8.8,8.8,0,0,0,4.207-5.767,93.3,93.3,0,0,0,16.1-6.338c3.429-1.669,6.956-3.547,10.482-5.582,1.789-1.033,3.557-2.1,5.276-3.172l.031,0C86.314,29.967,91.4,40.533,91.263,50.28ZM36.4,43.1a5.284,5.284,0,0,1-2.637,4.251c-1.668.963-7.4,1.093-12.1.878,2.165-4.181,5.142-9.077,6.811-10.042A5.293,5.293,0,0,1,36.4,43.1Z" transform="translate(-5.179)" fill="#fff"/>
      </g>
    </g>
    <g id="Grupo_35797" data-name="Grupo 35797" transform="translate(23.982 10.906)">
      <g id="Grupo_35796" data-name="Grupo 35796">
        <path id="Caminho_37756" data-name="Caminho 37756" d="M375.3,165.108a7.055,7.055,0,1,0,7.055,7.055A7.063,7.063,0,0,0,375.3,165.108Zm0,10.582a3.527,3.527,0,1,1,3.527-3.527A3.531,3.531,0,0,1,375.3,175.69Z" transform="translate(-368.241 -165.108)" fill="#fff"/>
      </g>
    </g>
    <g id="Grupo_35799" data-name="Grupo 35799" transform="translate(15.164 58.297)">
      <g id="Grupo_35798" data-name="Grupo 35798">
        <path id="Caminho_37757" data-name="Caminho 37757" d="M241.8,882.543a7.055,7.055,0,1,0,7.055,7.055A7.063,7.063,0,0,0,241.8,882.543Zm0,10.582a3.527,3.527,0,1,1,3.527-3.527A3.531,3.531,0,0,1,241.8,893.125Z" transform="translate(-234.745 -882.543)" fill="#fff"/>
      </g>
    </g>
    <g id="Grupo_35801" data-name="Grupo 35801" transform="translate(32.801 68.879)">
      <g id="Grupo_35800" data-name="Grupo 35800">
        <path id="Caminho_37758" data-name="Caminho 37758" d="M508.792,1042.738a7.055,7.055,0,1,0,7.055,7.055A7.063,7.063,0,0,0,508.792,1042.738Zm0,10.582a3.527,3.527,0,1,1,3.527-3.527A3.531,3.531,0,0,1,508.792,1053.32Z" transform="translate(-501.737 -1042.738)" fill="#fff"/>
      </g>
    </g>
    <g id="Grupo_35803" data-name="Grupo 35803" transform="translate(53.964 65.352)">
      <g id="Grupo_35802" data-name="Grupo 35802">
        <path id="Caminho_37759" data-name="Caminho 37759" d="M829.182,989.34a7.055,7.055,0,1,0,7.055,7.054A7.062,7.062,0,0,0,829.182,989.34Zm0,10.582a3.527,3.527,0,1,1,3.527-3.527A3.531,3.531,0,0,1,829.182,999.921Z" transform="translate(-822.128 -989.34)" fill="#fff"/>
      </g>
    </g>
    <g id="Grupo_35805" data-name="Grupo 35805" transform="translate(68.073 47.715)">
      <g id="Grupo_35804" data-name="Grupo 35804">
        <path id="Caminho_37760" data-name="Caminho 37760" d="M1042.776,722.347a7.055,7.055,0,1,0,7.054,7.055A7.063,7.063,0,0,0,1042.776,722.347Zm0,10.582a3.527,3.527,0,1,1,3.527-3.527A3.531,3.531,0,0,1,1042.776,732.929Z" transform="translate(-1035.721 -722.347)" fill="#fff"/>
      </g>
    </g>
  </g>
</svg>
