<svg id="facebook-logo_1_" data-name="facebook-logo (1)" xmlns="http://www.w3.org/2000/svg" width="12.93" height="23.916" viewBox="0 0 12.93 23.916">
  <path id="Caminho_37792" data-name="Caminho 37792" d="M34.52,0l-3.1,0c-3.484,0-5.736,2.31-5.736,5.886V8.6H22.565a.488.488,0,0,0-.488.488v3.932a.488.488,0,0,0,.488.488h3.118v9.921a.487.487,0,0,0,.488.488h4.068a.488.488,0,0,0,.488-.488V13.507h3.646a.487.487,0,0,0,.488-.488V9.087a.488.488,0,0,0-.488-.488H30.727V6.3c0-1.106.263-1.667,1.7-1.667H34.52a.488.488,0,0,0,.487-.488V.493A.488.488,0,0,0,34.52,0Z" transform="translate(-22.077)" fill="#fff"/>
</svg>
