<svg id="instagram-logo_1_" data-name="instagram-logo (1)" xmlns="http://www.w3.org/2000/svg" width="23.955" height="23.955" viewBox="0 0 23.955 23.955">
  <path id="Caminho_37793" data-name="Caminho 37793" d="M17.344,0H6.611A6.618,6.618,0,0,0,0,6.611V17.345a6.618,6.618,0,0,0,6.611,6.611H17.344a6.618,6.618,0,0,0,6.611-6.611V6.611A6.618,6.618,0,0,0,17.344,0ZM21.83,17.345a4.491,4.491,0,0,1-4.486,4.485H6.611a4.49,4.49,0,0,1-4.485-4.485V6.611A4.49,4.49,0,0,1,6.611,2.125H17.344A4.491,4.491,0,0,1,21.83,6.611V17.345Z" fill="#fff"/>
  <path id="Caminho_37794" data-name="Caminho 37794" d="M47.141,40.97a6.173,6.173,0,1,0,6.173,6.173A6.18,6.18,0,0,0,47.141,40.97Zm0,10.22a4.047,4.047,0,1,1,4.047-4.047A4.052,4.052,0,0,1,47.141,51.19Z" transform="translate(-35.163 -35.165)" fill="#fff"/>
  <path id="Caminho_37795" data-name="Caminho 37795" d="M120.48,28.251a1.558,1.558,0,1,0,1.1.456A1.565,1.565,0,0,0,120.48,28.251Z" transform="translate(-102.07 -24.248)" fill="#fff"/>
</svg>
