<svg id="joystick" xmlns="http://www.w3.org/2000/svg" width="111.623" height="111.608" viewBox="0 0 111.623 111.608">
  <g id="Grupo_35807" data-name="Grupo 35807" transform="translate(14.889 66.964)">
    <g id="Grupo_35806" data-name="Grupo 35806">
      <path id="Caminho_37772" data-name="Caminho 37772" d="M91.936,297.333H84.5v-7.44a1.86,1.86,0,0,0-1.86-1.86h-7.44a1.86,1.86,0,0,0-1.86,1.86v7.44h-7.44a1.86,1.86,0,0,0-1.86,1.86v7.44a1.86,1.86,0,0,0,1.86,1.86h7.44v7.44a1.86,1.86,0,0,0,1.86,1.86h7.44a1.86,1.86,0,0,0,1.86-1.86v-7.44h7.44a1.86,1.86,0,0,0,1.86-1.86v-7.44A1.86,1.86,0,0,0,91.936,297.333Zm-1.86,7.44h-7.44a1.86,1.86,0,0,0-1.86,1.86v7.44h-3.72v-7.44a1.86,1.86,0,0,0-1.86-1.86h-7.44v-3.72h7.44a1.86,1.86,0,0,0,1.86-1.86v-7.44h3.72v7.44a1.86,1.86,0,0,0,1.86,1.86h7.44Z" transform="translate(-64.034 -288.032)" fill="#fff"/>
    </g>
  </g>
  <g id="Grupo_35809" data-name="Grupo 35809" transform="translate(0 0)">
    <g id="Grupo_35808" data-name="Grupo 35808">
      <path id="Caminho_37773" data-name="Caminho 37773" d="M111.429,78.478C110,65.66,97.963,53.668,85.134,52.3a30.88,30.88,0,0,0-3.281-.186H61.392v-7.44h-3.72v-3.72a7.44,7.44,0,0,0-7.44-7.44h-9.3a3.72,3.72,0,0,1,0-7.44H70.692a7.44,7.44,0,1,0,0-14.881h-9.3a3.72,3.72,0,0,1-3.72-3.72V.032h-3.72v7.44a7.44,7.44,0,0,0,7.44,7.44h9.3a3.72,3.72,0,1,1,0,7.44H40.93a7.44,7.44,0,0,0,0,14.881h9.3a3.72,3.72,0,0,1,3.72,3.72v3.72h-3.72v7.44H29.77a30.343,30.343,0,0,0-3.285.186C13.65,53.677,1.619,65.67.2,78.488a29.762,29.762,0,0,0,45.238,28.687,18.217,18.217,0,0,1,8.164-2.885,28.683,28.683,0,0,1,4.325-.015,18.356,18.356,0,0,1,8.292,2.917,29.762,29.762,0,0,0,45.214-28.713ZM53.951,48.395h3.72v3.72h-3.72Zm47.312,50.844a26.025,26.025,0,0,1-33.088,4.79,21.95,21.95,0,0,0-9.987-3.465q-1.177-.085-2.377-.086c-.846,0-1.674.035-2.507.1a21.881,21.881,0,0,0-9.836,3.434A26.041,26.041,0,0,1,3.894,78.9C5.118,67.885,15.858,57.186,26.885,56a26.755,26.755,0,0,1,2.885-.166H81.853a27.358,27.358,0,0,1,2.885.154c11.025,1.185,21.763,11.884,22.991,22.9A25.856,25.856,0,0,1,101.263,99.239Z" transform="translate(0 -0.032)" fill="#fff"/>
    </g>
  </g>
  <g id="Grupo_35811" data-name="Grupo 35811" transform="translate(74.412 63.244)">
    <g id="Grupo_35810" data-name="Grupo 35810">
      <path id="Caminho_37774" data-name="Caminho 37774" d="M327.474,272.032a7.44,7.44,0,1,0,7.44,7.44A7.44,7.44,0,0,0,327.474,272.032Zm0,11.161a3.72,3.72,0,1,1,3.72-3.72A3.72,3.72,0,0,1,327.474,283.193Z" transform="translate(-320.034 -272.032)" fill="#fff"/>
    </g>
  </g>
  <g id="Grupo_35813" data-name="Grupo 35813" transform="translate(74.412 85.565)">
    <g id="Grupo_35812" data-name="Grupo 35812">
      <path id="Caminho_37775" data-name="Caminho 37775" d="M327.474,368.032a7.44,7.44,0,1,0,7.44,7.44A7.441,7.441,0,0,0,327.474,368.032Zm0,11.161a3.72,3.72,0,1,1,3.72-3.72A3.72,3.72,0,0,1,327.474,379.193Z" transform="translate(-320.034 -368.032)" fill="#fff"/>
    </g>
  </g>
  <g id="Grupo_35815" data-name="Grupo 35815" transform="translate(61.391 74.404)">
    <g id="Grupo_35814" data-name="Grupo 35814">
      <path id="Caminho_37776" data-name="Caminho 37776" d="M271.474,320.032a7.44,7.44,0,1,0,7.44,7.44A7.44,7.44,0,0,0,271.474,320.032Zm0,11.161a3.72,3.72,0,1,1,3.72-3.72A3.72,3.72,0,0,1,271.474,331.193Z" transform="translate(-264.034 -320.032)" fill="#fff"/>
    </g>
  </g>
  <g id="Grupo_35817" data-name="Grupo 35817" transform="translate(87.433 74.404)">
    <g id="Grupo_35816" data-name="Grupo 35816">
      <path id="Caminho_37777" data-name="Caminho 37777" d="M383.474,320.032a7.44,7.44,0,1,0,7.44,7.44A7.44,7.44,0,0,0,383.474,320.032Zm0,11.161a3.72,3.72,0,1,1,3.72-3.72A3.72,3.72,0,0,1,383.474,331.193Z" transform="translate(-376.034 -320.032)" fill="#fff"/>
    </g>
  </g>
</svg>
