<svg xmlns="http://www.w3.org/2000/svg" width="27.953" height="23.961" viewBox="0 0 27.953 23.961">
  <g id="twitter" transform="translate(23 -1)">
    <g id="Grupo_35847" data-name="Grupo 35847" transform="translate(-23 1)">
      <path id="Caminho_37796" data-name="Caminho 37796" d="M27.953,50.837a11.465,11.465,0,0,1-3.3.955,5.966,5.966,0,0,0,2.521-3.342,11.1,11.1,0,0,1-3.634,1.463A5.608,5.608,0,0,0,19.352,48a5.893,5.893,0,0,0-5.727,6.047,6.555,6.555,0,0,0,.133,1.379A15.958,15.958,0,0,1,1.946,49.1a6.344,6.344,0,0,0-.784,3.056,6.148,6.148,0,0,0,2.545,5.024,5.435,5.435,0,0,1-2.589-.745V56.5a6,6,0,0,0,4.591,5.941,5.439,5.439,0,0,1-1.5.2,4.811,4.811,0,0,1-1.085-.1,5.834,5.834,0,0,0,5.355,4.212,11.139,11.139,0,0,1-7.105,2.579A10.182,10.182,0,0,1,0,69.248a15.529,15.529,0,0,0,8.791,2.713c10.545,0,16.311-9.216,16.311-17.2,0-.267-.009-.525-.021-.782A11.8,11.8,0,0,0,27.953,50.837Z" transform="translate(0 -48)" fill="#fff"/>
    </g>
  </g>
</svg>
