<svg id="web-programming" xmlns="http://www.w3.org/2000/svg" width="97.808" height="86.294" viewBox="0 0 97.808 86.294">
  <path id="Caminho_37761" data-name="Caminho 37761" d="M127.062,202.014a1.608,1.608,0,0,1-1.045-.386l-10.449-8.9a1.615,1.615,0,0,1,0-2.459l10.449-8.9a1.614,1.614,0,1,1,2.093,2.458l-9,7.668,9,7.668a1.615,1.615,0,0,1-1.048,2.845Zm0,0" transform="translate(-88.472 -139.239)" fill="#fff"/>
  <path id="Caminho_37762" data-name="Caminho 37762" d="M251.323,202.014a1.616,1.616,0,0,1-1.048-2.845l9-7.668-9-7.668a1.614,1.614,0,0,1,2.093-2.458l10.449,8.9a1.615,1.615,0,0,1,0,2.459l-10.449,8.9A1.608,1.608,0,0,1,251.323,202.014Zm0,0" transform="translate(-192.105 -139.239)" fill="#fff"/>
  <path id="Caminho_37763" data-name="Caminho 37763" d="M190.571,187.174a1.642,1.642,0,0,1-.335-.035,1.615,1.615,0,0,1-1.247-1.913l6.512-30.919a1.615,1.615,0,0,1,3.16.666l-6.512,30.919A1.615,1.615,0,0,1,190.571,187.174Zm0,0" transform="translate(-145.366 -117.725)" fill="#fff"/>
  <path id="Caminho_37764" data-name="Caminho 37764" d="M86.966,86.294H10.842A10.854,10.854,0,0,1,0,75.452V10.842A10.855,10.855,0,0,1,10.842,0H86.966A10.855,10.855,0,0,1,97.808,10.842v64.61A10.854,10.854,0,0,1,86.966,86.294ZM10.842,3.23A7.621,7.621,0,0,0,3.23,10.842v64.61a7.621,7.621,0,0,0,7.612,7.612H86.966a7.621,7.621,0,0,0,7.612-7.612V10.842A7.621,7.621,0,0,0,86.966,3.23Zm0,0" fill="#fff"/>
  <path id="Caminho_37765" data-name="Caminho 37765" d="M96.193,101.32H1.615a1.615,1.615,0,0,1,0-3.23H96.193a1.615,1.615,0,1,1,0,3.23Zm0,0" transform="translate(0 -75.463)" fill="#fff"/>
  <path id="Caminho_37766" data-name="Caminho 37766" d="M102.56,44.509a5.11,5.11,0,1,1,5.11-5.11,5.117,5.117,0,0,1-5.11,5.11Zm0-6.991A1.881,1.881,0,1,0,104.44,39.4a1.883,1.883,0,0,0-1.881-1.881Zm0,0" transform="translate(-74.97 -26.379)" fill="#fff"/>
  <path id="Caminho_37767" data-name="Caminho 37767" d="M34.5,44.294a5.11,5.11,0,1,1,5.11-5.11A5.116,5.116,0,0,1,34.5,44.294Zm0-6.991a1.881,1.881,0,1,0,1.881,1.881A1.884,1.884,0,0,0,34.5,37.3Zm0,0" transform="translate(-22.608 -26.214)" fill="#fff"/>
  <path id="Caminho_37768" data-name="Caminho 37768" d="M170.625,44.723a5.11,5.11,0,1,1,5.11-5.11A5.116,5.116,0,0,1,170.625,44.723Zm0-6.991a1.881,1.881,0,1,0,1.881,1.881A1.882,1.882,0,0,0,170.625,37.733Zm0,0" transform="translate(-127.335 -26.545)" fill="#fff"/>
</svg>
